HIERARCHY
ROOT hip
{
  OFFSET 0 0 0
  CHANNELS 6 Xposition Yposition Zposition Zrotation Yrotation Xrotation
  JOINT abdomen
  {
    OFFSET 0 20.6881 -0.73152
    CHANNELS 3 Zrotation Xrotation Yrotation
    JOINT chest
    {
      OFFSET 0 11.7043 -0.48768
      CHANNELS 3 Zrotation Xrotation Yrotation
      JOINT neck
      {
        OFFSET 0 22.1894 -2.19456
        CHANNELS 3 Zrotation Xrotation Yrotation
        JOINT head
        {
          OFFSET -0.24384 7.07133 1.2192
          CHANNELS 3 Zrotation Xrotation Yrotation
          JOINT leftEye
          {
            OFFSET 4.14528 8.04674 8.04672
            CHANNELS 3 Zrotation Xrotation Yrotation
            End Site
            {
              OFFSET 1 0 0
            }
          }
          JOINT rightEye
          {
            OFFSET -3.6576 8.04674 8.04672
            CHANNELS 3 Zrotation Xrotation Yrotation
            End Site
            {
              OFFSET 1 0 0
            }
          }
        }
      }
      JOINT rCollar
      {
        OFFSET -2.68224 19.2634 -4.8768
        CHANNELS 3 Zrotation Xrotation Yrotation
        JOINT rShldr
        {
          OFFSET -8.77824 -1.95073 1.46304
          CHANNELS 3 Zrotation Xrotation Yrotation
          JOINT rForeArm
          {
            OFFSET -28.1742 -1.7115 0.48768
            CHANNELS 3 Zrotation Xrotation Yrotation
            JOINT rHand
            {
              OFFSET -22.5879 0.773209 7.07136
              CHANNELS 3 Zrotation Xrotation Yrotation
              JOINT rThumb1
              {
                OFFSET -1.2192 -0.487915 3.41376
                CHANNELS 3 Zrotation Xrotation Yrotation
                JOINT rThumb2
                {
                  OFFSET -3.37035 -0.52449 3.41376
                  CHANNELS 3 Zrotation Xrotation Yrotation
                  End Site
                  {
                    OFFSET -1.78271 -1.18214 1.43049
                  }
                }
              }
              JOINT rIndex1
              {
                OFFSET -7.75947 0.938293 5.60832
                CHANNELS 3 Zrotation Xrotation Yrotation
                JOINT rIndex2
                {
                  OFFSET -2.54057 -0.884171 1.56538
                  CHANNELS 3 Zrotation Xrotation Yrotation
                  End Site
                  {
                    OFFSET -1.62519 -0.234802 1.16502
                  }
                }
              }
              JOINT rMid1
              {
                OFFSET -8.24714 1.18213 3.41376
                CHANNELS 3 Zrotation Xrotation Yrotation
                JOINT rMid2
                {
                  OFFSET -3.10165 -0.590103 1.0647
                  CHANNELS 3 Zrotation Xrotation Yrotation
                  End Site
                  {
                    OFFSET -2.48547 -0.328903 0.83742
                  }
                }
              }
              JOINT rRing1
              {
                OFFSET -8.82822 0.546677 1.51678
                CHANNELS 3 Zrotation Xrotation Yrotation
                JOINT rRing2
                {
                  OFFSET -2.60934 -0.819778 -0.0198488
                  CHANNELS 3 Zrotation Xrotation Yrotation
                  End Site
                  {
                    OFFSET -2.33842 -0.294052 0.168128
                  }
                }
              }
              JOINT rPinky1
              {
                OFFSET -8.27202 -0.0477905 -0.4584
                CHANNELS 3 Zrotation Xrotation Yrotation
                JOINT rPinky2
                {
                  OFFSET -1.82734 -0.647385 -0.700984
                  CHANNELS 3 Zrotation Xrotation Yrotation
                  End Site
                  {
                    OFFSET -1.69225 -0.51767 -0.607171
                  }
                }
              }
            }
          }
        }
      }
      JOINT lCollar
      {
        OFFSET 2.68224 19.2634 -4.8768
        CHANNELS 3 Zrotation Xrotation Yrotation
        JOINT lShldr
        {
          OFFSET 8.77824 -1.95073 1.46304
          CHANNELS 3 Zrotation Xrotation Yrotation
          JOINT lForeArm
          {
            OFFSET 28.1742 -1.7115 0.48768
            CHANNELS 3 Zrotation Xrotation Yrotation
            JOINT lHand
            {
              OFFSET 22.5879 0.773209 7.07136
              CHANNELS 3 Zrotation Xrotation Yrotation
              JOINT lThumb1
              {
                OFFSET 1.2192 -0.487915 3.41376
                CHANNELS 3 Zrotation Xrotation Yrotation
                JOINT lThumb2
                {
                  OFFSET 3.37035 -0.52449 3.41376
                  CHANNELS 3 Zrotation Xrotation Yrotation
                  End Site
                  {
                    OFFSET 1.78271 -1.18214 1.43049
                  }
                }
              }
              JOINT lIndex1
              {
                OFFSET 7.75947 0.938293 5.60832
                CHANNELS 3 Zrotation Xrotation Yrotation
                JOINT lIndex2
                {
                  OFFSET 2.54057 -0.884171 1.56538
                  CHANNELS 3 Zrotation Xrotation Yrotation
                  End Site
                  {
                    OFFSET 1.62519 -0.234802 1.16502
                  }
                }
              }
              JOINT lMid1
              {
                OFFSET 8.24714 1.18213 3.41376
                CHANNELS 3 Zrotation Xrotation Yrotation
                JOINT lMid2
                {
                  OFFSET 3.10165 -0.590103 1.0647
                  CHANNELS 3 Zrotation Xrotation Yrotation
                  End Site
                  {
                    OFFSET 2.48547 -0.328903 0.83742
                  }
                }
              }
              JOINT lRing1
              {
                OFFSET 8.82822 0.546677 1.51678
                CHANNELS 3 Zrotation Xrotation Yrotation
                JOINT lRing2
                {
                  OFFSET 2.60934 -0.819778 -0.0198488
                  CHANNELS 3 Zrotation Xrotation Yrotation
                  End Site
                  {
                    OFFSET 2.33842 -0.294052 0.168128
                  }
                }
              }
              JOINT lPinky1
              {
                OFFSET 8.27202 -0.0477905 -0.4584
                CHANNELS 3 Zrotation Xrotation Yrotation
                JOINT lPinky2
                {
                  OFFSET 1.82734 -0.647385 -0.700984
                  CHANNELS 3 Zrotation Xrotation Yrotation
                  End Site
                  {
                    OFFSET 1.69225 -0.51767 -0.607171
                  }
                }
              }
            }
          }
        }
      }
    }
  }
  JOINT rButtock
  {
    OFFSET -8.77824 4.35084 1.2192
    CHANNELS 3 Zrotation Xrotation Yrotation
    JOINT rThigh
    {
      OFFSET 0 -1.70687 -2.19456
      CHANNELS 3 Zrotation Xrotation Yrotation
      JOINT rShin
      {
        OFFSET 0 -36.8199 0.73152
        CHANNELS 3 Zrotation Xrotation Yrotation
        JOINT rFoot
        {
          OFFSET 0.73152 -45.1104 -5.12064
          CHANNELS 3 Zrotation Xrotation Yrotation
          End Site
          {
            OFFSET -1.1221 -3.69964 12.103
          }
        }
      }
    }
  }
  JOINT lButtock
  {
    OFFSET 8.77824 4.35084 1.2192
    CHANNELS 3 Zrotation Xrotation Yrotation
    JOINT lThigh
    {
      OFFSET 0 -1.70687 -2.19456
      CHANNELS 3 Zrotation Xrotation Yrotation
      JOINT lShin
      {
        OFFSET 0 -36.8199 0.73152
        CHANNELS 3 Zrotation Xrotation Yrotation
        JOINT lFoot
        {
          OFFSET -0.73152 -45.1104 -5.12064
          CHANNELS 3 Zrotation Xrotation Yrotation
          End Site
          {
            OFFSET 1.1221 -3.69964 12.103
          }
        }
      }
    }
  }
}
MOTION
Frames:	8
Frame Time:	0.03333
-5.4803999999999995 61.9486 10.7513 177.02814 -27.360491 -173.67664 -6.008215 12.444631 -74.101251 5.735033 1.136551 72.29025 -18.800185 19.666875 -93.537552 36.752257 15.505633 61.030486 -7.790085 -0.146101 2.145566 -20.168298 -17.227818 80.848163 -150.242471 9.740341 148.641818 -29.515981 -8.3942 -20.873855 -172.933696 8.60673 -113.312751 -0.823061 37.556621 3.518764 84.052514 -59.590292 37.306185 -104.455882 -10.720675 59.91605 -161.098841 -24.807694 93.844639 -167.087167 -12.258518 80.653635 -29.685811 58.665709 9.702261 -14.155123 22.970685 8.494492 -140.845854 -36.417927 -155.963139 -19.736754 -50.44571 -78.926215 -139.112979 17.46421 -134.57044 54.196712 -23.422919 -30.420629 91.73998 77.786153 -89.584267 -84.836646 -1.120477 -85.869159 -77.06393 37.419611 -57.625726 54.759011 49.61726 -35.941238 -89.984369 -40.669901 -40.688029 -156.833186 -68.112527 -136.381782 21.66934 -61.331051 52.466388 120.725766 -15.386735 -114.787869 17.195295 -4.58771 -12.812053 -28.926823 63.509158 8.250604 59.878835 -70.686133 80.020792 137.422597 9.265006 163.90083 92.401053 63.789335 -164.965378 -38.145698 19.610589 6.634819 -20.265653 -25.179279 -28.981102 11.695642 -42.292241 -180.0 58.82293 -72.961561 166.292981 129.434449 37.727044 -41.136637 8.624467 -22.319994 -0.0 6.254765 6.474255 135.812849 61.163484 -35.790373 2.495779 -173.990137 -14.32036 84.378393
-5.7506 62.0073 11.1562 177.119803 -26.51552 -173.761558 -6.094209 12.800866 -77.531133 6.168214 1.42305 76.224757 -18.474586 17.832089 -83.980157 35.790846 9.234649 53.102804 -6.407382 -0.218692 3.905565 -30.428715 -22.803329 73.11522 83.751411 -83.837057 62.082996 48.439532 6.90548 -17.543563 -27.076755 40.154116 88.711853 3.755344 19.404724 4.904969 -170.78347 -1.403054 97.267491 -88.893184 12.042155 86.657733 3.332181 -2.14945 27.289424 -113.957297 83.933978 92.799144 -7.384954 -12.337658 -14.3568 -151.573075 13.679324 132.278495 -4.810694 13.71725 -1.600147 -125.498703 34.956303 117.639936 -4.734329 -18.337314 -17.339357 164.285561 -15.778966 166.102588 82.932359 -78.779078 99.117009 -104.896576 19.80915 97.213938 -17.032741 47.911287 -90.211944 20.781158 10.883073 -4.716014 -89.017534 -43.106424 -41.289076 88.736375 29.919622 -24.442255 14.057857 -17.29469 32.819464 73.563554 21.039857 -74.617842 -4.967285 -40.569855 -18.008891 -49.10615 61.727048 52.110633 57.620543 74.612514 -79.290808 173.066225 -2.315372 -157.304408 8.176377 -62.509494 31.08537 89.28548 -68.137828 69.233466 2.513292 -28.626299 -1.634053 -22.208903 -41.244063 -110.530237 -85.712902 -2.496298 -126.704416 14.47919 27.360357 -142.338088 72.156238 37.791923 77.711519 -70.839816 41.478043 143.595814 -22.132107 -69.548687 -31.601408 172.808303 5.485839 143.415378
-6.0393 62.252300000000005 11.5148 177.679237 -27.566873 -174.824553 -8.526553 16.111394 2.03885 4.522909 -9.337592 -1.085931 1.602346 12.900798 66.053202 -28.410773 -5.315173 -96.706644 -12.338751 -0.138966 1.285554 -42.390004 -22.503328 54.319028 11.683946 -52.185285 -0.745799 -53.974306 79.104754 108.544294 18.149588 -72.309006 84.744883 -3.30173 46.158685 2.16386 -176.538166 -1.357019 93.090959 -42.534994 14.955465 40.65011 30.343247 -20.117726 24.98268 -6.985441 -14.022794 -32.102713 -2.834104 -53.848494 -12.192916 -82.254597 69.254411 84.940481 1.169995 7.18378 0.075334 -55.663507 30.702581 43.262754 -137.95558 22.146399 -148.566108 -51.995925 -31.990917 -93.393137 84.319035 -83.524906 97.678021 175.129278 -1.226967 109.784935 135.238819 16.292545 -20.573748 177.814088 -46.716701 -154.856103 -88.602164 -51.481094 -34.286921 172.381444 -13.418051 -100.2976 86.866459 69.288522 -58.721138 25.38523 -12.215988 10.025366 -154.153441 -28.647032 -126.246381 -124.702332 -63.163733 -144.692525 68.565414 -64.993005 93.872667 -169.804175 82.460526 129.191952 108.257912 -2.187711 152.193496 119.129888 45.186922 176.630532 27.361294 -15.417102 32.619748 -65.834988 -25.136295 0.0 84.454687 48.832498 89.571858 74.623078 16.577989 -176.679357 -43.819476 88.792335 -135.964292 -132.883756 67.078445 38.201148 66.086811 20.410346 147.447168 -18.88859 42.903672 150.274199
-6.2355 62.2621 11.688 178.057355 -29.00963 -176.109325 -8.841664 17.481327 -0.0 4.66187 -10.626991 1.102899 -16.559768 23.738664 -98.869984 35.998758 16.958319 63.67994 -11.432888 0.47477 -4.740126 -56.70969 -20.111121 36.378785 -81.030435 64.120785 83.765516 42.800678 -59.650153 69.214233 101.730503 21.587712 137.735374 174.66772 26.887868 153.458384 6.25883 -23.832429 1.521692 -27.587875 -16.449438 -7.667713 -54.403995 8.378405 60.75484 -102.6755 -83.355094 171.510039 -0.911565 -55.106186 -10.603997 -163.422129 -53.043263 144.677801 8.063257 -4.477993 1.163274 14.044263 -54.680617 58.692291 5.512606 -41.444664 1.317898 -91.599439 69.409739 97.644535 142.560053 54.428402 -136.431684 93.147753 4.608548 -71.053779 -114.093875 -34.471286 105.532628 52.659392 47.538865 -34.264985 -84.147104 -55.926014 -28.406669 178.863071 -25.298784 -95.755925 13.16786 -47.427755 39.536782 -162.040968 -43.143274 -65.43818 -45.160239 -66.700576 -52.862879 88.554885 -43.928278 104.640416 136.827464 3.546864 173.497702 -92.037134 72.331797 94.799018 101.380941 8.510265 159.405039 97.717671 37.794863 -166.063822 -79.796596 58.397081 -83.557017 122.761256 10.183885 -96.49096 -86.55175 -26.140873 -104.583816 24.427321 22.4877 -166.720125 -129.645574 85.176828 -50.454247 -132.02652 61.776421 -51.547164 -12.595546 63.155473 101.271522 -9.986334 -33.425166 -75.869774
-6.2934 62.15690000000001 11.674 178.122991 -30.38754 -177.141618 -8.568699 14.144699 -162.891617 -1.65766 7.883175 163.119076 -17.077698 20.950422 -79.831178 35.440869 6.758346 46.999193 -3.795079 0.520183 -15.603994 -63.203958 -17.706105 28.412922 -8.152713 24.770425 10.883593 -96.641649 34.29117 108.832064 -0.432561 -2.429087 -105.657504 150.36578 -39.853913 135.830604 -90.456979 36.567437 37.238022 -75.733639 19.67197 70.003061 -147.726336 -26.853281 78.773688 -175.435338 -28.190635 64.116731 -5.490022 -11.839379 -10.874146 121.453853 -60.883365 82.475805 -62.204976 67.601781 91.434354 -55.869794 3.541854 -52.904611 -1.0631 50.336435 57.902891 135.301988 28.024501 -89.515284 10.769932 0.35127 1.001034 88.422381 -1.374051 175.273469 178.292971 -39.94113 76.286536 15.925647 -7.217554 1.725147 4.807969 11.28332 4.657555 49.307942 22.298564 -18.506719 17.455293 6.731435 19.670318 6.289172 2.095341 -16.130891 -177.255544 22.110644 -125.510058 116.476861 33.033918 -50.230934 -5.522428 0.317529 2.600347 -34.606344 -17.07578 -12.372173 15.141925 67.60851 -97.112001 106.767031 59.244585 126.334207 -94.228276 67.495288 -75.414859 130.48193 11.960683 79.968881 74.402265 21.095248 -18.834286 -141.464354 20.967739 63.378583 -0.257249 -11.940005 -0.0 23.265999 -1.843748 1.281705 -27.44554 56.386314 -52.170788 84.096983 -64.134705 161.251608
-6.2132 62.1839 11.5653 178.06779 -31.428156 -177.789041 -6.988645 16.693382 -110.566174 7.73842 5.284391 110.037219 -16.918612 20.9652 -82.412298 34.933609 8.834967 48.600512 5.08594 -1.24461 -27.485545 -63.311675 -19.142328 30.591557 7.823439 -63.445788 -7.64267 41.758458 -63.524234 -10.436526 -24.893581 86.383435 99.294595 -8.324056 40.775972 4.951889 -14.804763 -2.686631 0.75146 -139.075081 -1.307206 119.985636 100.812736 -33.6312 39.635035 -111.114909 49.194463 38.908286 -22.251894 59.074436 9.611533 -164.64471 36.900205 124.661815 -134.104422 3.439871 172.898493 -58.937286 -17.85014 -119.11486 -60.831935 -77.920058 -87.78476 168.933124 -45.465689 148.919972 15.203982 24.825304 -4.109694 88.508455 -8.885049 -160.677495 103.11167 25.379406 77.200505 -134.178673 -84.765221 -116.69911 166.419617 -3.338043 -95.030161 -20.387962 -38.230434 -19.666152 66.843041 58.689498 -30.251278 178.274304 -14.406962 -108.674921 -51.10265 -75.284254 -63.413866 165.633117 5.757225 158.041268 142.571969 -0.33561 178.934444 -145.009823 80.783353 149.99617 -39.207586 -47.517281 -12.307465 -93.932949 55.707713 133.472331 7.125414 -7.82557 11.130827 -52.216225 -43.800682 -61.783147 -71.850839 60.98125 -40.533927 160.529056 6.702579 -104.9007 -72.96402 72.423843 -88.641269 -176.313912 75.171541 176.187291 -11.000663 -69.104806 -36.686609 119.910482 56.006947 140.313666
-6.0249 62.37200000000001 11.4634 178.077547 -32.058687 -178.109468 -7.986326 20.357807 -21.175987 7.800574 -10.068819 22.257867 -16.11128 15.516731 -55.329777 30.889738 -4.477123 24.895309 6.356907 -1.936493 -33.854691 -54.360029 -23.868371 44.744908 -163.546576 -66.013862 170.486884 -114.445452 -41.216852 -138.950818 -6.123293 10.75435 -101.463124 151.18403 -44.106633 137.605139 -84.344128 39.417482 37.165184 -31.710192 26.448282 36.35694 -15.574784 10.817059 48.317906 127.679653 80.479008 -134.303888 -1.963809 16.714316 -13.729087 37.47074 -50.654227 37.120537 -136.556269 10.139323 170.581776 33.665798 12.442223 -71.155563 -107.252334 26.376941 -169.115778 41.442052 -34.119493 -48.964693 20.182934 43.290836 -9.947358 124.790076 -42.50126 -128.461443 166.087828 24.919005 80.429111 8.921498 -19.364582 4.276566 6.551886 3.458678 2.311739 21.944017 17.33549 -3.863125 54.162897 50.001068 -14.066408 10.048523 13.145293 -12.51733 -51.074762 -74.717907 -63.407467 168.522614 10.995046 163.668962 -0.641933 -1.445478 -0.396048 -24.585578 8.06507 -2.768271 109.295083 -1.121116 168.928401 -14.997099 -0.727942 -88.403062 -1.208835 -8.545236 -0.0 -36.020649 -50.655595 -29.806297 -26.24106 82.12463 -113.11427 71.213673 -23.955535 174.952582 32.028464 -15.500503 24.017319 -8.041509 7.809884 85.622083 63.584159 4.785591 149.397613 112.059579 -24.919789 176.579322
-5.7747 62.262499999999996 11.5048 178.264488 -31.403087 -178.496314 -8.415747 20.907617 -0.0 4.930043 -12.425057 0.486564 1.748649 16.342253 85.911024 -29.800297 1.628042 -115.002715 -6.752474 2.263515 -37.028114 -43.740414 -23.911155 55.625807 57.838899 -88.539614 37.60849 -133.915865 7.455778 -164.966189 171.014235 -48.244404 -120.955175 -11.450663 45.918571 8.672374 -172.479026 -1.840619 96.496385 -18.270566 -5.053003 33.525685 -149.394901 -32.402193 93.095452 14.621155 11.481315 35.332744 -150.84616 -61.419905 175.499355 -170.708394 -58.683436 130.531064 -67.101316 -77.508854 -85.608474 -10.736235 -72.719997 -98.937383 13.012644 -56.075821 -19.88754 108.513126 -43.494666 128.859132 15.754414 44.978202 -6.582675 93.963811 -11.119119 -140.66223 -105.686629 -37.242782 117.758071 44.186427 47.80056 -25.183433 159.358814 4.320119 -89.119143 136.462489 -14.560801 -67.250203 16.082958 -19.496519 26.797674 17.486786 33.00413 -29.605659 -141.104051 -37.936341 -131.668389 33.526823 65.827665 20.257729 140.80213 23.525294 -168.109095 166.207506 -28.468636 -168.362028 27.852859 -78.437452 53.357284 -136.97168 54.440017 -178.993596 0.929907 -10.172805 1.390214 -37.04037 -50.92559 -136.778487 -80.847467 -10.884908 -152.974325 127.411078 77.607375 156.96605 15.034026 -23.263274 -0.0 7.227716 14.235443 -1.646393 -21.941609 62.36915 162.42849 -60.543796 -35.279116 -146.75945
